<?xml version="1.0" standalone="no"?>
<!DOCTYPE svg PUBLIC "-//W3C//DTD SVG 20010904//EN"
 "http://www.w3.org/TR/2001/REC-SVG-20010904/DTD/svg10.dtd">
<svg version="1.0" xmlns="http://www.w3.org/2000/svg"
 width="700.000000pt" height="700.000000pt" viewBox="0 0 700.000000 700.000000"
 preserveAspectRatio="xMidYMid meet">
<metadata>
Created by potrace 1.14, written by Peter Selinger 2001-2017
</metadata>
<g transform="translate(0.000000,700.000000) scale(0.100000,-0.100000)"
fill="#000000" stroke="none">
<path d="M1004 5900 c-68 -15 -133 -77 -274 -260 -19 -25 -38 -49 -43 -55
-215 -271 -466 -787 -563 -1160 -29 -108 -70 -304 -79 -365 -3 -25 -8 -56 -11
-70 -5 -28 -9 -63 -21 -190 -15 -164 -9 -565 12 -714 2 -17 6 -47 9 -66 3 -19
8 -57 11 -85 4 -27 10 -66 15 -85 5 -19 12 -48 14 -65 9 -48 13 -65 36 -155
21 -85 73 -257 89 -295 5 -11 25 -65 46 -120 75 -199 219 -474 348 -665 49
-73 156 -220 167 -230 3 -3 37 -43 75 -88 103 -124 171 -155 276 -128 62 16
103 50 134 110 44 86 28 185 -43 261 -100 107 -266 339 -361 503 -50 86 -158
311 -190 397 -13 33 -27 69 -32 80 -5 11 -11 29 -13 40 -3 11 -12 40 -20 64
-18 50 -73 254 -81 303 -3 18 -8 41 -11 51 -7 21 -9 35 -19 117 -4 30 -8 57
-10 60 -2 3 -6 41 -10 85 -4 44 -9 96 -11 115 -5 45 -5 364 0 410 2 19 7 71
11 115 4 44 9 88 11 99 2 10 5 37 8 60 18 148 87 409 156 591 23 61 44 120 47
133 3 12 9 22 14 22 5 0 9 7 9 15 0 42 203 403 303 540 60 82 160 207 199 250
86 92 89 229 8 312 -55 56 -132 79 -206 63z"/>
<path d="M5880 5894 c-121 -37 -184 -182 -130 -297 11 -23 39 -62 61 -87 94
-102 272 -353 345 -483 172 -308 292 -631 349 -942 10 -49 18 -97 20 -105 37
-196 46 -563 21 -790 -15 -130 -18 -156 -22 -174 -5 -23 -11 -58 -20 -108 -3
-18 -10 -53 -15 -78 -6 -25 -12 -52 -14 -60 -20 -97 -110 -361 -170 -500 -42
-99 -151 -308 -171 -331 -8 -8 -14 -19 -14 -23 0 -24 -238 -351 -318 -436 -91
-98 -95 -231 -9 -320 66 -68 179 -84 259 -37 93 55 338 378 492 650 57 100
176 340 176 354 0 2 8 23 19 46 37 83 117 322 147 437 15 63 18 74 29 123 11
50 54 295 60 342 30 258 28 654 -5 885 -18 129 -21 146 -41 240 -125 592 -374
1104 -763 1569 -37 45 -87 92 -110 106 -51 30 -117 37 -176 19z"/>
<path d="M1775 5280 c-70 -16 -111 -53 -252 -225 -56 -69 -162 -227 -205 -305
-81 -147 -97 -181 -173 -365 -46 -111 -112 -363 -131 -505 -3 -25 -8 -54 -10
-65 -22 -116 -21 -499 2 -645 34 -218 99 -471 154 -595 9 -22 30 -69 46 -105
122 -280 399 -671 517 -732 110 -56 246 -7 298 106 30 66 20 168 -20 213 -305
343 -473 673 -545 1073 -31 170 -39 382 -23 572 14 172 83 449 147 595 95 213
214 405 350 563 90 105 105 133 109 203 6 137 -130 249 -264 217z"/>
<path d="M5109 5275 c-85 -27 -148 -114 -149 -206 0 -54 34 -128 83 -179 18
-19 51 -57 72 -85 22 -27 43 -52 46 -55 10 -8 134 -201 164 -255 99 -180 194
-455 220 -635 4 -24 8 -47 10 -50 17 -28 25 -375 11 -520 -38 -411 -217 -825
-499 -1153 -94 -109 -114 -155 -104 -232 27 -193 252 -256 387 -109 319 349
534 777 620 1234 23 123 26 141 36 275 9 108 9 329 1 405 -4 30 -9 78 -12 105
-46 396 -210 812 -455 1155 -38 52 -77 104 -87 115 -10 11 -44 51 -77 88 -88
102 -168 132 -267 102z"/>
<path d="M2423 4565 c-60 -30 -146 -132 -234 -278 -147 -245 -217 -497 -217
-787 0 -74 4 -160 9 -190 5 -30 11 -71 14 -90 18 -113 89 -320 148 -430 78
-144 198 -303 260 -346 109 -74 277 -16 320 110 29 85 11 156 -63 246 -163
200 -254 452 -252 701 2 266 86 494 260 708 24 29 48 65 54 80 28 73 9 176
-44 230 -71 73 -166 90 -255 46z"/>
<path d="M4407 4576 c-77 -28 -132 -95 -141 -172 -7 -56 11 -124 43 -164 45
-56 115 -153 131 -180 100 -173 153 -370 152 -571 0 -83 -6 -130 -27 -238 -26
-134 -137 -354 -230 -456 -47 -52 -74 -121 -69 -179 14 -176 211 -268 346
-162 106 84 269 351 337 554 57 172 74 278 75 472 1 198 -3 244 -38 386 -26
107 -66 215 -117 317 -29 58 -94 170 -111 192 -112 144 -141 174 -187 194 -57
24 -109 26 -164 7z"/>
<path d="M3405 3926 c-162 -38 -292 -167 -329 -323 -66 -286 154 -553 443
-538 293 14 489 304 392 579 -72 207 -296 331 -506 282z"/>
</g>
</svg>
